# Blender v2.79 (sub 0) OBJ File: ''
# www.blender.org
mtllib rounded_cube.mtl
o Rounded_Cube_Left_Rounded_Cube_Cube_Left
v -0.500000 -0.350000 0.350000
v -0.500000 0.350000 0.350000
v -0.500000 0.350000 -0.350000
v -0.500000 -0.350000 -0.350000
v -0.488582 -0.407403 0.350000
v -0.474802 -0.408841 0.408841
v -0.488582 -0.350000 0.407403
v -0.456066 -0.456066 0.350000
v -0.448438 -0.448438 0.405856
v -0.448438 -0.405856 0.448438
v -0.456066 -0.350000 0.456066
v -0.436603 -0.436603 0.436603
v -0.488582 0.350000 0.407403
v -0.474802 0.408841 0.408841
v -0.488582 0.407403 0.350000
v -0.456066 0.350000 0.456066
v -0.448438 0.405856 0.448438
v -0.448438 0.448438 0.405856
v -0.456066 0.456066 0.350000
v -0.436603 0.436603 0.436603
v -0.488582 -0.350000 -0.407403
v -0.474802 -0.408841 -0.408841
v -0.488582 -0.407403 -0.350000
v -0.456066 -0.350000 -0.456066
v -0.448438 -0.405856 -0.448438
v -0.448438 -0.448438 -0.405856
v -0.456066 -0.456066 -0.350000
v -0.436603 -0.436603 -0.436603
v -0.488582 0.407403 -0.350000
v -0.474802 0.408841 -0.408841
v -0.488582 0.350000 -0.407403
v -0.456066 0.456066 -0.350000
v -0.448438 0.448438 -0.405856
v -0.448438 0.405856 -0.448438
v -0.456066 0.350000 -0.456066
v -0.436603 0.436603 -0.436603
vt 0.883716 0.116284
vt 0.883716 0.883716
vt 0.116284 0.883716
vt 0.116284 0.116284
vt 0.883716 0.053351
vt 0.948226 0.051774
vt 0.946649 0.116284
vt 0.883716 0.000000
vt 0.944953 0.008363
vt 0.991637 0.055047
vt 1.000000 0.116284
vt 0.978661 0.021338
vt 0.946649 0.883716
vt 0.948226 0.948226
vt 0.883716 0.946649
vt 1.000000 0.883716
vt 0.991637 0.944953
vt 0.944953 0.991637
vt 0.883716 1.000000
vt 0.978662 0.978661
vt 0.053351 0.116284
vt 0.051774 0.051774
vt 0.116284 0.053351
vt 0.000000 0.116284
vt 0.008363 0.055047
vt 0.055047 0.008363
vt 0.116284 0.000000
vt 0.021338 0.021339
vt 0.116284 0.946649
vt 0.051774 0.948226
vt 0.053351 0.883716
vt 0.116284 1.000000
vt 0.055047 0.991637
vt 0.008363 0.944953
vt 0.000000 0.883716
vt 0.021339 0.978662
vn -1.0000 0.0000 0.0000
vn -0.9571 -0.2049 0.2049
vn -0.8152 -0.5500 0.1818
vn -0.8152 -0.1818 0.5500
vn -0.7167 -0.4931 0.4931
vn -0.9571 0.2049 0.2049
vn -0.8152 0.1818 0.5500
vn -0.8152 0.5500 0.1818
vn -0.7167 0.4931 0.4931
vn -0.9571 -0.2049 -0.2049
vn -0.8152 -0.1818 -0.5500
vn -0.8152 -0.5500 -0.1818
vn -0.7167 -0.4931 -0.4931
vn -0.9571 0.2049 -0.2049
vn -0.8152 0.5500 -0.1818
vn -0.8152 0.1818 -0.5500
vn -0.7167 0.4931 -0.4931
vn -0.8315 -0.5556 -0.0000
vn -0.9808 -0.1951 -0.0000
vn -0.8315 -0.0000 0.5556
vn -0.9808 0.0000 0.1951
vn -0.8315 0.5556 0.0000
vn -0.9808 0.1951 0.0000
vn -0.8315 0.0000 -0.5556
vn -0.9808 0.0000 -0.1951
usemtl Left
s 1
f 1/1/1 2/2/1 3/3/1 4/4/1
f 1/1/2 5/5/2 6/6/2 7/7/2
f 5/5/3 8/8/3 9/9/3 6/6/3
f 7/7/4 6/6/4 10/10/4 11/11/4
f 6/6/5 9/9/5 12/12/5 10/10/5
f 2/2/6 13/13/6 14/14/6 15/15/6
f 13/13/7 16/16/7 17/17/7 14/14/7
f 15/15/8 14/14/8 18/18/8 19/19/8
f 14/14/9 17/17/9 20/20/9 18/18/9
f 4/4/10 21/21/10 22/22/10 23/23/10
f 21/21/11 24/24/11 25/25/11 22/22/11
f 23/23/12 22/22/12 26/26/12 27/27/12
f 22/22/13 25/25/13 28/28/13 26/26/13
f 3/3/14 29/29/14 30/30/14 31/31/14
f 29/29/15 32/32/15 33/33/15 30/30/15
f 31/31/16 30/30/16 34/34/16 35/35/16
f 30/30/17 33/33/17 36/36/17 34/34/17
f 27/27/18 8/8/18 5/5/18 23/23/18
f 23/23/19 5/5/19 1/1/19 4/4/19
f 11/11/20 16/16/20 13/13/20 7/7/20
f 7/7/21 13/13/21 2/2/21 1/1/21
f 19/19/22 32/32/22 29/29/22 15/15/22
f 15/15/23 29/29/23 3/3/23 2/2/23
f 35/35/24 24/24/24 21/21/24 31/31/24
f 31/31/25 21/21/25 4/4/25 3/3/25
o Rounded_Cube_Front_Rounded_Cube_Cube_Front
v 0.350000 -0.350000 0.500000
v 0.350000 0.350000 0.500000
v -0.350000 0.350000 0.500000
v -0.350000 -0.350000 0.500000
v -0.407403 -0.350000 0.488582
v -0.408841 -0.408841 0.474802
v -0.350000 -0.407403 0.488582
v -0.456066 -0.350000 0.456066
v -0.448438 -0.405856 0.448438
v -0.405856 -0.448438 0.448438
v -0.350000 -0.456066 0.456066
v -0.436603 -0.436603 0.436603
v -0.350000 0.407403 0.488582
v -0.408841 0.408841 0.474802
v -0.407403 0.350000 0.488582
v -0.350000 0.456066 0.456066
v -0.405856 0.448438 0.448438
v -0.448438 0.405856 0.448438
v -0.456066 0.350000 0.456066
v -0.436603 0.436603 0.436603
v 0.350000 -0.407403 0.488582
v 0.408841 -0.408841 0.474802
v 0.407403 -0.350000 0.488582
v 0.350000 -0.456066 0.456066
v 0.405856 -0.448438 0.448438
v 0.448438 -0.405856 0.448438
v 0.456066 -0.350000 0.456066
v 0.436603 -0.436603 0.436603
v 0.407403 0.350000 0.488582
v 0.408841 0.408841 0.474802
v 0.350000 0.407403 0.488582
v 0.456066 0.350000 0.456066
v 0.448438 0.405856 0.448438
v 0.405856 0.448438 0.448438
v 0.350000 0.456066 0.456066
v 0.436603 0.436603 0.436603
vt 0.883716 0.883716
vt 0.116284 0.883716
vt 0.116284 0.116284
vt 0.883716 0.116284
vt 0.883716 0.053351
vt 0.948226 0.051774
vt 0.946649 0.116284
vt 0.883716 0.000000
vt 0.944953 0.008363
vt 0.991637 0.055047
vt 1.000000 0.116284
vt 0.978661 0.021338
vt 0.053351 0.116284
vt 0.051774 0.051774
vt 0.116284 0.053351
vt 0.000000 0.116284
vt 0.008363 0.055047
vt 0.055047 0.008363
vt 0.116284 0.000000
vt 0.021339 0.021339
vt 0.946649 0.883716
vt 0.948226 0.948226
vt 0.883716 0.946649
vt 1.000000 0.883716
vt 0.991637 0.944953
vt 0.944953 0.991637
vt 0.883716 1.000000
vt 0.978662 0.978661
vt 0.116284 0.946649
vt 0.051774 0.948226
vt 0.053351 0.883716
vt 0.116284 1.000000
vt 0.055047 0.991637
vt 0.008363 0.944953
vt 0.000000 0.883716
vt 0.021339 0.978662
vn 0.0000 -0.0000 1.0000
vn -0.2049 -0.2049 0.9571
vn -0.5500 -0.1818 0.8152
vn -0.1818 -0.5500 0.8152
vn -0.4931 -0.4931 0.7167
vn -0.2049 0.2049 0.9571
vn -0.1818 0.5500 0.8152
vn -0.5500 0.1818 0.8152
vn -0.4931 0.4931 0.7167
vn 0.2049 -0.2049 0.9571
vn 0.1818 -0.5500 0.8152
vn 0.5500 -0.1818 0.8152
vn 0.4931 -0.4931 0.7167
vn 0.2049 0.2049 0.9571
vn 0.5500 0.1818 0.8152
vn 0.1818 0.5500 0.8152
vn 0.4931 0.4931 0.7167
vn -0.1951 -0.0000 0.9808
vn -0.5556 -0.0000 0.8315
vn 0.1951 -0.0000 0.9808
vn 0.5556 -0.0000 0.8315
vn 0.0000 -0.5556 0.8315
vn 0.0000 -0.1951 0.9808
vn 0.0000 0.5556 0.8315
vn 0.0000 0.1951 0.9808
usemtl Front
s 1
f 37/37/26 38/38/26 39/39/26 40/40/26
f 40/40/27 41/41/27 42/42/27 43/43/27
f 41/41/28 44/44/28 45/45/28 42/42/28
f 43/43/29 42/42/29 46/46/29 47/47/29
f 42/42/30 45/45/30 48/48/30 46/46/30
f 39/39/31 49/49/31 50/50/31 51/51/31
f 49/49/32 52/52/32 53/53/32 50/50/32
f 51/51/33 50/50/33 54/54/33 55/55/33
f 50/50/34 53/53/34 56/56/34 54/54/34
f 37/37/35 57/57/35 58/58/35 59/59/35
f 57/57/36 60/60/36 61/61/36 58/58/36
f 59/59/37 58/58/37 62/62/37 63/63/37
f 58/58/38 61/61/38 64/64/38 62/62/38
f 38/38/39 65/65/39 66/66/39 67/67/39
f 65/65/40 68/68/40 69/69/40 66/66/40
f 67/67/41 66/66/41 70/70/41 71/71/41
f 66/66/42 69/69/42 72/72/42 70/70/42
f 40/40/43 39/39/43 51/51/43 41/41/43
f 41/41/44 51/51/44 55/55/44 44/44/44
f 38/38/45 37/37/45 59/59/45 65/65/45
f 65/65/46 59/59/46 63/63/46 68/68/46
f 47/47/47 60/60/47 57/57/47 43/43/47
f 43/43/48 57/57/48 37/37/48 40/40/48
f 71/71/49 52/52/49 49/49/49 67/67/49
f 67/67/50 49/49/50 39/39/50 38/38/50
o Rounded_Cube_Top_Rounded_Cube_Cube_Top
v 0.350000 0.500000 -0.350000
v -0.350000 0.500000 -0.350000
v -0.350000 0.500000 0.350000
v 0.350000 0.500000 0.350000
v -0.407403 0.488582 0.350000
v -0.408841 0.474802 0.408841
v -0.350000 0.488582 0.407403
v -0.456066 0.456066 0.350000
v -0.448438 0.448438 0.405856
v -0.405856 0.448438 0.448438
v -0.350000 0.456066 0.456066
v -0.436603 0.436603 0.436603
v -0.350000 0.488582 -0.407403
v -0.408841 0.474802 -0.408841
v -0.407403 0.488582 -0.350000
v -0.350000 0.456066 -0.456066
v -0.405856 0.448438 -0.448438
v -0.448438 0.448438 -0.405856
v -0.456066 0.456066 -0.350000
v -0.436603 0.436603 -0.436603
v 0.350000 0.488582 0.407403
v 0.408841 0.474802 0.408841
v 0.407403 0.488582 0.350000
v 0.350000 0.456066 0.456066
v 0.405856 0.448438 0.448438
v 0.448438 0.448438 0.405856
v 0.456066 0.456066 0.350000
v 0.436603 0.436603 0.436603
v 0.407403 0.488582 -0.350000
v 0.408841 0.474802 -0.408841
v 0.350000 0.488582 -0.407403
v 0.456066 0.456066 -0.350000
v 0.448438 0.448438 -0.405856
v 0.405856 0.448438 -0.448438
v 0.350000 0.456066 -0.456066
v 0.436603 0.436603 -0.436603
vt 0.883716 0.116284
vt 0.883716 0.883716
vt 0.116284 0.883716
vt 0.116284 0.116284
vt 0.116284 0.946649
vt 0.051774 0.948226
vt 0.053352 0.883716
vt 0.116284 1.000000
vt 0.055048 0.991637
vt 0.008363 0.944953
vt 0.000000 0.883716
vt 0.021339 0.978662
vt 0.946649 0.883716
vt 0.948226 0.948226
vt 0.883716 0.946648
vt 1.000000 0.883716
vt 0.991637 0.944952
vt 0.944953 0.991637
vt 0.883716 1.000000
vt 0.978662 0.978661
vt 0.053351 0.116284
vt 0.051774 0.051774
vt 0.116284 0.053352
vt 0.000000 0.116284
vt 0.008363 0.055048
vt 0.055047 0.008363
vt 0.116284 0.000000
vt 0.021338 0.021339
vt 0.883716 0.053351
vt 0.948226 0.051774
vt 0.946648 0.116284
vt 0.883716 0.000000
vt 0.944952 0.008363
vt 0.991637 0.055047
vt 1.000000 0.116284
vt 0.978661 0.021338
vn 0.0000 1.0000 0.0000
vn -0.2049 0.9571 0.2049
vn -0.5500 0.8152 0.1818
vn -0.1818 0.8152 0.5500
vn -0.4931 0.7167 0.4931
vn -0.2049 0.9571 -0.2049
vn -0.1818 0.8152 -0.5500
vn -0.5500 0.8152 -0.1818
vn -0.4931 0.7167 -0.4931
vn 0.2049 0.9571 0.2049
vn 0.1818 0.8152 0.5500
vn 0.5500 0.8152 0.1818
vn 0.4931 0.7167 0.4931
vn 0.2049 0.9571 -0.2049
vn 0.5500 0.8152 -0.1818
vn 0.1818 0.8152 -0.5500
vn 0.4931 0.7167 -0.4931
vn -0.1951 0.9808 0.0000
vn -0.5556 0.8315 0.0000
vn 0.0000 0.9808 -0.1951
vn 0.0000 0.8315 -0.5556
vn 0.1951 0.9808 0.0000
vn 0.5556 0.8315 0.0000
vn 0.0000 0.9808 0.1951
vn 0.0000 0.8315 0.5556
usemtl Top
s 1
f 73/73/51 74/74/51 75/75/51 76/76/51
f 75/75/52 77/77/52 78/78/52 79/79/52
f 77/77/53 80/80/53 81/81/53 78/78/53
f 79/79/54 78/78/54 82/82/54 83/83/54
f 78/78/55 81/81/55 84/84/55 82/82/55
f 74/74/56 85/85/56 86/86/56 87/87/56
f 85/85/57 88/88/57 89/89/57 86/86/57
f 87/87/58 86/86/58 90/90/58 91/91/58
f 86/86/59 89/89/59 92/92/59 90/90/59
f 76/76/60 93/93/60 94/94/60 95/95/60
f 93/93/61 96/96/61 97/97/61 94/94/61
f 95/95/62 94/94/62 98/98/62 99/99/62
f 94/94/63 97/97/63 100/100/63 98/98/63
f 73/73/64 101/101/64 102/102/64 103/103/64
f 101/101/65 104/104/65 105/105/65 102/102/65
f 103/103/66 102/102/66 106/106/66 107/107/66
f 102/102/67 105/105/67 108/108/67 106/106/67
f 75/75/68 74/74/68 87/87/68 77/77/68
f 77/77/69 87/87/69 91/91/69 80/80/69
f 74/74/70 73/73/70 103/103/70 85/85/70
f 85/85/71 103/103/71 107/107/71 88/88/71
f 73/73/72 76/76/72 95/95/72 101/101/72
f 101/101/73 95/95/73 99/99/73 104/104/73
f 76/76/74 75/75/74 79/79/74 93/93/74
f 93/93/75 79/79/75 83/83/75 96/96/75
o Rounded_Cube_Back_Rounded_Cube_Cube_Back
v -0.350000 -0.350000 -0.500000
v -0.350000 0.350000 -0.500000
v 0.350000 0.350000 -0.500000
v 0.350000 -0.350000 -0.500000
v -0.350000 -0.407403 -0.488582
v -0.408841 -0.408841 -0.474802
v -0.407403 -0.350000 -0.488582
v -0.350000 -0.456066 -0.456066
v -0.405856 -0.448438 -0.448438
v -0.448438 -0.405856 -0.448438
v -0.456066 -0.350000 -0.456066
v -0.436603 -0.436603 -0.436603
v -0.407403 0.350000 -0.488582
v -0.408841 0.408841 -0.474802
v -0.350000 0.407403 -0.488582
v -0.456066 0.350000 -0.456066
v -0.448438 0.405856 -0.448438
v -0.405856 0.448438 -0.448438
v -0.350000 0.456066 -0.456066
v -0.436603 0.436603 -0.436603
v 0.407403 -0.350000 -0.488582
v 0.408841 -0.408841 -0.474802
v 0.350000 -0.407403 -0.488582
v 0.456066 -0.350000 -0.456066
v 0.448438 -0.405856 -0.448438
v 0.405856 -0.448438 -0.448438
v 0.350000 -0.456066 -0.456066
v 0.436603 -0.436603 -0.436603
v 0.350000 0.407403 -0.488582
v 0.408841 0.408841 -0.474802
v 0.407403 0.350000 -0.488582
v 0.350000 0.456066 -0.456066
v 0.405856 0.448438 -0.448438
v 0.448438 0.405856 -0.448438
v 0.456066 0.350000 -0.456066
v 0.436603 0.436603 -0.436603
vt 0.883716 0.883716
vt 0.116284 0.883716
vt 0.116284 0.116284
vt 0.883716 0.116284
vt 0.946649 0.883716
vt 0.948226 0.948226
vt 0.883716 0.946649
vt 1.000000 0.883716
vt 0.991637 0.944952
vt 0.944953 0.991637
vt 0.883716 1.000000
vt 0.978662 0.978661
vt 0.116284 0.946649
vt 0.051774 0.948226
vt 0.053351 0.883716
vt 0.116284 1.000000
vt 0.055047 0.991637
vt 0.008363 0.944953
vt 0.000000 0.883716
vt 0.021339 0.978662
vt 0.883716 0.053351
vt 0.948226 0.051774
vt 0.946649 0.116284
vt 0.883716 0.000000
vt 0.944953 0.008363
vt 0.991637 0.055047
vt 1.000000 0.116284
vt 0.978662 0.021338
vt 0.053351 0.116284
vt 0.051774 0.051774
vt 0.116284 0.053351
vt 0.000000 0.116284
vt 0.008363 0.055047
vt 0.055047 0.008363
vt 0.116284 0.000000
vt 0.021338 0.021339
vn 0.0000 0.0000 -1.0000
vn -0.2049 -0.2049 -0.9571
vn -0.1818 -0.5500 -0.8152
vn -0.5500 -0.1818 -0.8152
vn -0.4931 -0.4931 -0.7167
vn -0.2049 0.2049 -0.9571
vn -0.5500 0.1818 -0.8152
vn -0.1818 0.5500 -0.8152
vn -0.4931 0.4931 -0.7167
vn 0.2049 -0.2049 -0.9571
vn 0.5500 -0.1818 -0.8152
vn 0.1818 -0.5500 -0.8152
vn 0.4931 -0.4931 -0.7167
vn 0.2049 0.2049 -0.9571
vn 0.1818 0.5500 -0.8152
vn 0.5500 0.1818 -0.8152
vn 0.4931 0.4931 -0.7167
vn -0.1951 0.0000 -0.9808
vn -0.5556 0.0000 -0.8315
vn 0.0000 -0.5556 -0.8315
vn 0.0000 -0.1951 -0.9808
vn 0.0000 0.5556 -0.8315
vn 0.0000 0.1951 -0.9808
vn 0.5556 0.0000 -0.8315
vn 0.1951 0.0000 -0.9808
usemtl Back
s 1
f 109/109/76 110/110/76 111/111/76 112/112/76
f 109/109/77 113/113/77 114/114/77 115/115/77
f 113/113/78 116/116/78 117/117/78 114/114/78
f 115/115/79 114/114/79 118/118/79 119/119/79
f 114/114/80 117/117/80 120/120/80 118/118/80
f 110/110/81 121/121/81 122/122/81 123/123/81
f 121/121/82 124/124/82 125/125/82 122/122/82
f 123/123/83 122/122/83 126/126/83 127/127/83
f 122/122/84 125/125/84 128/128/84 126/126/84
f 112/112/85 129/129/85 130/130/85 131/131/85
f 129/129/86 132/132/86 133/133/86 130/130/86
f 131/131/87 130/130/87 134/134/87 135/135/87
f 130/130/88 133/133/88 136/136/88 134/134/88
f 111/111/89 137/137/89 138/138/89 139/139/89
f 137/137/90 140/140/90 141/141/90 138/138/90
f 139/139/91 138/138/91 142/142/91 143/143/91
f 138/138/92 141/141/92 144/144/92 142/142/92
f 110/110/93 109/109/93 115/115/93 121/121/93
f 121/121/94 115/115/94 119/119/94 124/124/94
f 135/135/95 116/116/95 113/113/95 131/131/95
f 131/131/96 113/113/96 109/109/96 112/112/96
f 127/127/97 140/140/97 137/137/97 123/123/97
f 123/123/98 137/137/98 111/111/98 110/110/98
f 143/143/99 132/132/99 129/129/99 139/139/99
f 139/139/100 129/129/100 112/112/100 111/111/100
o Rounded_Cube_Right_Rounded_Cube_Cube_Right
v 0.500000 -0.350000 -0.350000
v 0.500000 0.350000 -0.350000
v 0.500000 0.350000 0.350000
v 0.500000 -0.350000 0.350000
v 0.488582 -0.350000 0.407403
v 0.474802 -0.408841 0.408841
v 0.488582 -0.407403 0.350000
v 0.456066 -0.350000 0.456066
v 0.448438 -0.405856 0.448438
v 0.448438 -0.448438 0.405856
v 0.456066 -0.456066 0.350000
v 0.436603 -0.436603 0.436603
v 0.488582 0.407403 0.350000
v 0.474802 0.408841 0.408841
v 0.488582 0.350000 0.407403
v 0.456066 0.456066 0.350000
v 0.448438 0.448438 0.405856
v 0.448438 0.405856 0.448438
v 0.456066 0.350000 0.456066
v 0.436603 0.436603 0.436603
v 0.488582 -0.407403 -0.350000
v 0.474802 -0.408841 -0.408841
v 0.488582 -0.350000 -0.407403
v 0.456066 -0.456066 -0.350000
v 0.448438 -0.448438 -0.405856
v 0.448438 -0.405856 -0.448438
v 0.456066 -0.350000 -0.456066
v 0.436603 -0.436603 -0.436603
v 0.488582 0.350000 -0.407403
v 0.474802 0.408841 -0.408841
v 0.488582 0.407403 -0.350000
v 0.456066 0.350000 -0.456066
v 0.448438 0.405856 -0.448438
v 0.448438 0.448438 -0.405856
v 0.456066 0.456066 -0.350000
v 0.436603 0.436603 -0.436603
vt 0.883716 0.116284
vt 0.883716 0.883716
vt 0.116284 0.883716
vt 0.116284 0.116284
vt 0.053351 0.116284
vt 0.051774 0.051774
vt 0.116284 0.053351
vt 0.000000 0.116284
vt 0.008363 0.055047
vt 0.055047 0.008363
vt 0.116284 0.000000
vt 0.021338 0.021339
vt 0.116284 0.946649
vt 0.051774 0.948226
vt 0.053351 0.883716
vt 0.116284 1.000000
vt 0.055047 0.991637
vt 0.008363 0.944953
vt 0.000000 0.883716
vt 0.021339 0.978662
vt 0.883716 0.053351
vt 0.948226 0.051774
vt 0.946649 0.116284
vt 0.883716 0.000000
vt 0.944953 0.008363
vt 0.991637 0.055047
vt 1.000000 0.116284
vt 0.978662 0.021338
vt 0.946649 0.883716
vt 0.948226 0.948226
vt 0.883716 0.946649
vt 1.000000 0.883716
vt 0.991637 0.944953
vt 0.944953 0.991637
vt 0.883716 1.000000
vt 0.978662 0.978661
vn 1.0000 0.0000 0.0000
vn 0.9571 -0.2049 0.2049
vn 0.8152 -0.1818 0.5500
vn 0.8152 -0.5500 0.1818
vn 0.7167 -0.4931 0.4931
vn 0.9571 0.2049 0.2049
vn 0.8152 0.5500 0.1818
vn 0.8152 0.1818 0.5500
vn 0.7167 0.4931 0.4931
vn 0.9571 -0.2049 -0.2049
vn 0.8152 -0.5500 -0.1818
vn 0.8152 -0.1818 -0.5500
vn 0.7167 -0.4931 -0.4931
vn 0.9571 0.2049 -0.2049
vn 0.8152 0.1818 -0.5500
vn 0.8152 0.5500 -0.1818
vn 0.7167 0.4931 -0.4931
vn 0.9808 0.0000 -0.1951
vn 0.8315 0.0000 -0.5556
vn 0.8315 -0.5556 -0.0000
vn 0.9808 -0.1951 -0.0000
vn 0.8315 0.5556 0.0000
vn 0.9808 0.1951 0.0000
vn 0.8315 -0.0000 0.5556
vn 0.9808 0.0000 0.1951
usemtl Right
s 1
f 145/145/101 146/146/101 147/147/101 148/148/101
f 148/148/102 149/149/102 150/150/102 151/151/102
f 149/149/103 152/152/103 153/153/103 150/150/103
f 151/151/104 150/150/104 154/154/104 155/155/104
f 150/150/105 153/153/105 156/156/105 154/154/105
f 147/147/106 157/157/106 158/158/106 159/159/106
f 157/157/107 160/160/107 161/161/107 158/158/107
f 159/159/108 158/158/108 162/162/108 163/163/108
f 158/158/109 161/161/109 164/164/109 162/162/109
f 145/145/110 165/165/110 166/166/110 167/167/110
f 165/165/111 168/168/111 169/169/111 166/166/111
f 167/167/112 166/166/112 170/170/112 171/171/112
f 166/166/113 169/169/113 172/172/113 170/170/113
f 146/146/114 173/173/114 174/174/114 175/175/114
f 173/173/115 176/176/115 177/177/115 174/174/115
f 175/175/116 174/174/116 178/178/116 179/179/116
f 174/174/117 177/177/117 180/180/117 178/178/117
f 146/146/118 145/145/118 167/167/118 173/173/118
f 173/173/119 167/167/119 171/171/119 176/176/119
f 155/155/120 168/168/120 165/165/120 151/151/120
f 151/151/121 165/165/121 145/145/121 148/148/121
f 179/179/122 160/160/122 157/157/122 175/175/122
f 175/175/123 157/157/123 147/147/123 146/146/123
f 163/163/124 152/152/124 149/149/124 159/159/124
f 159/159/125 149/149/125 148/148/125 147/147/125
o Rounded_Cube_Bottom_Rounded_Cube_Cube_Bottom
v -0.350000 -0.500000 0.350000
v -0.350000 -0.488582 0.407403
v -0.408841 -0.474802 0.408841
v -0.407403 -0.488582 0.350000
v -0.350000 -0.456066 0.456066
v -0.405856 -0.448438 0.448438
v -0.448438 -0.448438 0.405856
v -0.456066 -0.456066 0.350000
v -0.436603 -0.436603 0.436603
v -0.350000 -0.500000 -0.350000
v -0.407403 -0.488582 -0.350000
v -0.408841 -0.474802 -0.408841
v -0.350000 -0.488582 -0.407403
v -0.456066 -0.456066 -0.350000
v -0.448438 -0.448438 -0.405856
v -0.405856 -0.448438 -0.448438
v -0.350000 -0.456066 -0.456066
v -0.436603 -0.436603 -0.436603
v 0.350000 -0.500000 0.350000
v 0.407403 -0.488582 0.350000
v 0.408841 -0.474802 0.408841
v 0.350000 -0.488582 0.407403
v 0.456066 -0.456066 0.350000
v 0.448438 -0.448438 0.405856
v 0.405856 -0.448438 0.448438
v 0.350000 -0.456066 0.456066
v 0.436603 -0.436603 0.436603
v 0.350000 -0.500000 -0.350000
v 0.350000 -0.488582 -0.407403
v 0.408841 -0.474802 -0.408841
v 0.407403 -0.488582 -0.350000
v 0.350000 -0.456066 -0.456066
v 0.405856 -0.448438 -0.448438
v 0.448438 -0.448438 -0.405856
v 0.456066 -0.456066 -0.350000
v 0.436603 -0.436603 -0.436603
vt 0.883716 0.883716
vt 0.946649 0.883716
vt 0.948226 0.948226
vt 0.883716 0.946648
vt 1.000000 0.883716
vt 0.991637 0.944952
vt 0.944953 0.991637
vt 0.883716 1.000000
vt 0.978662 0.978661
vt 0.116284 0.883716
vt 0.116284 0.946649
vt 0.051774 0.948226
vt 0.053352 0.883716
vt 0.116284 1.000000
vt 0.055048 0.991637
vt 0.008363 0.944953
vt 0.000000 0.883716
vt 0.021339 0.978662
vt 0.883716 0.116284
vt 0.883716 0.053351
vt 0.948226 0.051774
vt 0.946648 0.116284
vt 0.883716 0.000000
vt 0.944952 0.008363
vt 0.991637 0.055047
vt 1.000000 0.116284
vt 0.978661 0.021338
vt 0.116284 0.116284
vt 0.053351 0.116284
vt 0.051774 0.051774
vt 0.116284 0.053352
vt 0.000000 0.116284
vt 0.008363 0.055048
vt 0.055047 0.008363
vt 0.116284 0.000000
vt 0.021338 0.021339
vn -0.2049 -0.9571 0.2049
vn -0.1818 -0.8152 0.5500
vn -0.5500 -0.8152 0.1818
vn -0.4931 -0.7167 0.4931
vn -0.2049 -0.9571 -0.2049
vn -0.5500 -0.8152 -0.1818
vn -0.1818 -0.8152 -0.5500
vn -0.4931 -0.7167 -0.4931
vn 0.2049 -0.9571 0.2049
vn 0.5500 -0.8152 0.1818
vn 0.1818 -0.8152 0.5500
vn 0.4931 -0.7167 0.4931
vn 0.2049 -0.9571 -0.2049
vn 0.1818 -0.8152 -0.5500
vn 0.5500 -0.8152 -0.1818
vn 0.4931 -0.7167 -0.4931
vn -0.1951 -0.9808 -0.0000
vn -0.5556 -0.8315 -0.0000
vn 0.0000 -0.9808 -0.1951
vn 0.0000 -0.8315 -0.5556
vn 0.1951 -0.9808 -0.0000
vn 0.5556 -0.8315 -0.0000
vn 0.0000 -0.9808 0.1951
vn 0.0000 -0.8315 0.5556
vn 0.0000 -1.0000 -0.0000
usemtl Bottom
s 1
f 181/181/126 182/182/126 183/183/126 184/184/126
f 182/182/127 185/185/127 186/186/127 183/183/127
f 184/184/128 183/183/128 187/187/128 188/188/128
f 183/183/129 186/186/129 189/189/129 187/187/129
f 190/190/130 191/191/130 192/192/130 193/193/130
f 191/191/131 194/194/131 195/195/131 192/192/131
f 193/193/132 192/192/132 196/196/132 197/197/132
f 192/192/133 195/195/133 198/198/133 196/196/133
f 199/199/134 200/200/134 201/201/134 202/202/134
f 200/200/135 203/203/135 204/204/135 201/201/135
f 202/202/136 201/201/136 205/205/136 206/206/136
f 201/201/137 204/204/137 207/207/137 205/205/137
f 208/208/138 209/209/138 210/210/138 211/211/138
f 209/209/139 212/212/139 213/213/139 210/210/139
f 211/211/140 210/210/140 214/214/140 215/215/140
f 210/210/141 213/213/141 216/216/141 214/214/141
f 190/190/142 181/181/142 184/184/142 191/191/142
f 191/191/143 184/184/143 188/188/143 194/194/143
f 208/208/144 190/190/144 193/193/144 209/209/144
f 209/209/145 193/193/145 197/197/145 212/212/145
f 199/199/146 208/208/146 211/211/146 200/200/146
f 200/200/147 211/211/147 215/215/147 203/203/147
f 181/181/148 199/199/148 202/202/148 182/182/148
f 182/182/149 202/202/149 206/206/149 185/185/149
f 190/190/150 208/208/150 199/199/150 181/181/150
