# Blender v2.79 (sub 0) OBJ File: ''
# www.blender.org
mtllib rounded_cube.mtl
o Cube
v -0.380000 -0.500000 0.380000
v -0.380000 -0.380000 0.500000
v -0.500000 -0.380000 0.380000
v -0.380000 -0.464853 0.464853
v -0.449282 -0.449282 0.449282
v -0.464853 -0.380000 0.464853
v -0.464853 -0.464853 0.380000
v -0.380000 0.380000 0.500000
v -0.380000 0.500000 0.380000
v -0.500000 0.380000 0.380000
v -0.380000 0.464853 0.464853
v -0.449282 0.449282 0.449282
v -0.464853 0.464853 0.380000
v -0.464853 0.380000 0.464853
v -0.380000 -0.500000 -0.380000
v -0.500000 -0.380000 -0.380000
v -0.380000 -0.380000 -0.500000
v -0.464853 -0.464853 -0.380000
v -0.449282 -0.449282 -0.449282
v -0.464853 -0.380000 -0.464853
v -0.380000 -0.464853 -0.464853
v -0.380000 0.500000 -0.380000
v -0.380000 0.380000 -0.500000
v -0.500000 0.380000 -0.380000
v -0.380000 0.464853 -0.464853
v -0.449282 0.449282 -0.449282
v -0.464853 0.380000 -0.464853
v -0.464853 0.464853 -0.380000
v 0.380000 -0.500000 0.380000
v 0.500000 -0.380000 0.380000
v 0.380000 -0.380000 0.500000
v 0.464853 -0.464853 0.380000
v 0.449282 -0.449282 0.449282
v 0.464853 -0.380000 0.464853
v 0.380000 -0.464853 0.464853
v 0.380000 0.500000 0.380000
v 0.380000 0.380000 0.500000
v 0.500000 0.380000 0.380000
v 0.380000 0.464853 0.464853
v 0.449282 0.449282 0.449282
v 0.464853 0.380000 0.464853
v 0.464853 0.464853 0.380000
v 0.380000 -0.500000 -0.380000
v 0.380000 -0.380000 -0.500000
v 0.500000 -0.380000 -0.380000
v 0.380000 -0.464853 -0.464853
v 0.449282 -0.449282 -0.449282
v 0.464853 -0.380000 -0.464853
v 0.464853 -0.464853 -0.380000
v 0.380000 0.500000 -0.380000
v 0.500000 0.380000 -0.380000
v 0.380000 0.380000 -0.500000
v 0.464853 0.464853 -0.380000
v 0.449282 0.449282 -0.449282
v 0.464853 0.380000 -0.464853
v 0.380000 0.464853 -0.464853
vt -0.120000 0.120000
vt -0.120000 0.880000
vt -0.880000 0.880000
vt -0.880000 0.120000
vt -0.120000 0.120000
vt -0.120000 0.880000
vt -0.880000 0.880000
vt -0.880000 0.120000
vt -0.120000 -0.120000
vt -0.880000 -0.120000
vt -0.880000 -0.880000
vt -0.120000 -0.880000
vt 0.120000 0.120000
vt 0.120000 0.880000
vt 0.880000 0.880000
vt 0.880000 0.120000
vt 0.120000 0.120000
vt 0.120000 0.880000
vt 0.880000 0.880000
vt 0.880000 0.120000
vt 0.120000 -0.880000
vt 0.120000 -1.000000
vt 0.050718 -1.000000
vt 0.000000 -0.880000
vt -1.000000 0.120000
vt -1.000000 0.050718
vt -0.880000 0.000000
vt 0.120000 0.000000
vt 0.050718 0.000000
vt 0.000000 0.120000
vt -0.880000 1.000000
vt -0.949282 1.000000
vt -1.000000 0.880000
vt -1.000000 -0.880000
vt -1.000000 -0.949282
vt -0.880000 -1.000000
vt 0.000000 0.880000
vt 0.000000 0.949282
vt 0.120000 1.000000
vt 0.120000 -0.120000
vt 0.000000 -0.120000
vt 0.000000 -0.050718
vt 0.120000 0.000000
vt 1.000000 0.120000
vt 1.000000 0.050718
vt 0.880000 0.000000
vt 0.050718 0.000000
vt 0.000000 0.120000
vt -0.880000 0.000000
vt -0.949282 0.000000
vt -1.000000 -0.120000
vt 0.000000 0.880000
vt 0.000000 0.949282
vt 0.120000 1.000000
vt 0.880000 1.000000
vt 0.949282 1.000000
vt 1.000000 0.880000
vt 0.880000 -0.880000
vt 1.000000 -0.880000
vt 1.000000 -0.949282
vt 0.880000 -1.000000
vt -1.000000 0.120000
vt -1.000000 0.050718
vt -0.880000 0.000000
vt -0.120000 0.000000
vt -0.050718 0.000000
vt 0.000000 0.120000
vt -0.120000 -1.000000
vt -0.050718 -1.000000
vt 0.000000 -0.880000
vt 0.000000 0.880000
vt 0.000000 0.949282
vt -0.120000 1.000000
vt -0.880000 1.000000
vt -0.949282 1.000000
vt -1.000000 0.880000
vt 0.880000 -0.120000
vt 0.880000 0.000000
vt 0.949282 0.000000
vt 1.000000 -0.120000
vt 1.000000 0.120000
vt 1.000000 0.050718
vt -0.120000 0.000000
vt -0.050718 0.000000
vt 0.000000 0.120000
vt 0.000000 -0.120000
vt 0.000000 -0.050718
vt -0.120000 0.000000
vt 0.000000 0.880000
vt 0.000000 0.949282
vt -0.120000 1.000000
vt 0.880000 1.000000
vt 0.949282 1.000000
vt 1.000000 0.880000
vn 0.0000 0.0000 1.0000
vn 1.0000 0.0000 0.0000
vn 0.0000 1.0000 0.0000
vn -1.0000 0.0000 0.0000
vn 0.0000 0.0000 -1.0000
vn -0.3251 -0.8881 0.3251
vn -0.3251 -0.3251 0.8881
vn -0.8881 -0.3251 0.3251
vn -0.3251 0.3251 0.8881
vn -0.3251 0.8881 0.3251
vn -0.8881 0.3251 0.3251
vn -0.3251 -0.8881 -0.3251
vn -0.8881 -0.3251 -0.3251
vn -0.3251 -0.3251 -0.8881
vn -0.3251 0.8881 -0.3251
vn -0.3251 0.3251 -0.8881
vn -0.8881 0.3251 -0.3251
vn 0.3251 -0.8881 0.3251
vn 0.8881 -0.3251 0.3251
vn 0.3251 -0.3251 0.8881
vn 0.3251 0.8881 0.3251
vn 0.3251 0.3251 0.8881
vn 0.8881 0.3251 0.3251
vn 0.3251 -0.8881 -0.3251
vn 0.3251 -0.3251 -0.8881
vn 0.8881 -0.3251 -0.3251
vn 0.3251 0.8881 -0.3251
vn 0.8881 0.3251 -0.3251
vn 0.3251 0.3251 -0.8881
vn -0.3827 -0.9239 0.0000
vn -0.9239 -0.3827 0.0000
vn -0.3827 0.0000 0.9239
vn -0.9239 0.0000 0.3827
vn -0.3827 0.9239 0.0000
vn -0.9239 0.3827 0.0000
vn -0.3827 0.0000 -0.9239
vn -0.9239 0.0000 -0.3827
vn 0.0000 -0.9239 -0.3827
vn 0.0000 -0.3827 -0.9239
vn 0.0000 0.9239 -0.3827
vn 0.0000 0.3827 -0.9239
vn 0.9239 0.0000 -0.3827
vn 0.3827 0.0000 -0.9239
vn 0.3827 -0.9239 0.0000
vn 0.9239 -0.3827 0.0000
vn 0.3827 0.9239 0.0000
vn 0.9239 0.3827 0.0000
vn 0.3827 0.0000 0.9239
vn 0.9239 0.0000 0.3827
vn 0.0000 -0.9239 0.3827
vn 0.0000 -0.3827 0.9239
vn 0.0000 0.9239 0.3827
vn 0.0000 0.3827 0.9239
vn 0.0000 -1.0000 0.0000
usemtl None
s off
f 31/1/1 37/2/1 8/3/1 2/4/1
f 45/5/2 51/6/2 38/7/2 30/8/2
f 50/9/3 22/10/3 9/11/3 36/12/3
f 3/13/4 10/14/4 24/15/4 16/16/4
f 17/17/5 23/18/5 52/19/5 44/20/5
f 1/21/6 4/22/6 5/23/6 7/24/6
f 2/4/7 6/25/7 5/26/7 4/27/7
f 3/13/8 7/28/8 5/29/8 6/30/8
f 8/3/9 11/31/9 12/32/9 14/33/9
f 9/11/10 13/34/10 12/35/10 11/36/10
f 10/14/11 14/37/11 12/38/11 13/39/11
f 15/40/12 18/41/12 19/42/12 21/43/12
f 16/16/13 20/44/13 19/45/13 18/46/13
f 17/17/14 21/43/14 19/47/14 20/48/14
f 22/10/15 25/49/15 26/50/15 28/51/15
f 23/18/16 27/52/16 26/53/16 25/54/16
f 24/15/17 28/55/17 26/56/17 27/57/17
f 29/58/18 32/59/18 33/60/18 35/61/18
f 30/8/19 34/62/19 33/63/19 32/64/19
f 31/1/20 35/65/20 33/66/20 34/67/20
f 36/12/21 39/68/21 40/69/21 42/70/21
f 37/2/22 41/71/22 40/72/22 39/73/22
f 38/7/23 42/74/23 40/75/23 41/76/23
f 43/77/24 46/78/24 47/79/24 49/80/24
f 44/20/25 48/81/25 47/82/25 46/78/25
f 45/5/26 49/83/26 47/84/26 48/85/26
f 50/9/27 53/86/27 54/87/27 56/88/27
f 51/6/28 55/89/28 54/90/28 53/91/28
f 52/19/29 56/92/29 54/93/29 55/94/29
f 15/40/30 1/21/30 7/24/30 18/41/30
f 18/46/31 7/28/31 3/13/31 16/16/31
f 2/4/32 8/3/32 14/33/32 6/25/32
f 6/30/33 14/37/33 10/14/33 3/13/33
f 9/11/34 22/10/34 28/51/34 13/34/34
f 13/39/35 28/55/35 24/15/35 10/14/35
f 23/18/36 17/17/36 20/48/36 27/52/36
f 27/57/37 20/44/37 16/16/37 24/15/37
f 43/77/38 15/40/38 21/43/38 46/78/38
f 46/78/39 21/43/39 17/17/39 44/20/39
f 22/10/40 50/9/40 56/88/40 25/49/40
f 25/54/41 56/92/41 52/19/41 23/18/41
f 51/6/42 45/5/42 48/85/42 55/89/42
f 55/94/43 48/81/43 44/20/43 52/19/43
f 29/58/44 43/77/44 49/80/44 32/59/44
f 32/64/45 49/83/45 45/5/45 30/8/45
f 50/9/46 36/12/46 42/70/46 53/86/46
f 53/91/47 42/74/47 38/7/47 51/6/47
f 37/2/48 31/1/48 34/67/48 41/71/48
f 41/76/49 34/62/49 30/8/49 38/7/49
f 1/21/50 29/58/50 35/61/50 4/22/50
f 4/27/51 35/65/51 31/1/51 2/4/51
f 36/12/52 9/11/52 11/36/52 39/68/52
f 39/73/53 11/31/53 8/3/53 37/2/53
f 15/40/54 43/77/54 29/58/54 1/21/54
